<?xml version="1.0" encoding="utf-8"?>
<!-- Generator: Adobe Illustrator 24.1.1, SVG Export Plug-In . SVG Version: 6.00 Build 0)  -->
<svg version="1.1" id="Слой_1" xmlns="http://www.w3.org/2000/svg" xmlns:xlink="http://www.w3.org/1999/xlink" x="0px" y="0px"
	 viewBox="0 0 1500 1500" style="enable-background:new 0 0 1500 1500;" xml:space="preserve">
<style type="text/css">
	.st0{fill:none;}
	.st1{fill:#7D3613;}
	.st2{fill:#F7931E;}
	.st3{opacity:0.3;}
	.st4{fill:#FB662A;}
	.st5{fill:#88BA56;}
	.st6{fill:#61AA54;}
	.st7{fill:none;stroke:#61AA54;stroke-width:2;stroke-miterlimit:10;}
	.st8{fill:#FBB03B;}
</style>
<path class="st0" d="M519.33,454.59"/>
<path class="st0" d="M586.77,449.5c-0.82,0.01-2.21-0.43-4.21-1.37"/>
<g>
	<line class="st1" x1="642.39" y1="1055.85" x2="606.45" y2="1036.04"/>
</g>
<line class="st1" x1="489.63" y1="974.26" x2="453.7" y2="954.45"/>
<g>
	<circle class="st2" cx="726.29" cy="683.39" r="443.28"/>
</g>
<g class="st3">
	<path class="st4" d="M1113.52,893.96c-118.41,214.75-388.17,293-602.57,174.78c-22.35-12.33-43.22-26.28-62.54-41.68
		c201.33,72.39,484.35-0.05,590.97-193.4c106.6-193.32,95.84-394.19-72.83-525.83c23.32,8.15-49.16-29.05-26.81-16.72
		C1154.13,409.34,1231.92,679.24,1113.52,893.96z"/>
</g>
<ellipse transform="matrix(0.4829 -0.8757 0.8757 0.4829 189.1446 990.8591)" class="st5" cx="933.51" cy="335.29" rx="11.13" ry="50.12"/>
<g>
	<g>
		<path class="st6" d="M1003.35,206.64c-7.11,20.04-18.68,40.31-30.96,58.88c-12.23,18.5-25.99,36.29-42.37,51.33
			c-4.78,4.38-4.44,12.53,0,16.97c4.76,4.76,12.18,4.4,16.97,0c17.83-16.37,32.8-36.06,46.12-56.18
			c13.37-20.2,25.26-41.73,33.38-64.61c2.17-6.11-2.45-13.13-8.38-14.76C1011.47,196.44,1005.52,200.51,1003.35,206.64
			L1003.35,206.64z"/>
	</g>
</g>
<path class="st7" d="M1002.7,241.57c0.66-0.49,17.74,21.47,38.19,49.08"/>
<g>
	<path class="st6" d="M1228.61,621.58c1.9,0.41,3.83,1.28,5.71,2.73c0.22,0.17,0.41,0.34,0.61,0.52
		c38.74,12.16,37.9-140.3-9.94-246.51c-40.67-90.31-124.28-137.78-176.51-110.95c-52.23,26.83-86.83,142.5-12.63,208.1
		c76.38,67.53,94.05,69.92,191.28,145.06C1227.64,620.91,1228.13,621.24,1228.61,621.58z"/>
	<path class="st5" d="M1243.46,626.68c26.58-19.86,22.6-150.93-19.01-246.42c-39.99-91.78-123.85-141.3-176.88-115.38
		c-50.97,66.58,156.68,313.22,181.93,356.94c1.61,0.47,3.23,1.27,4.82,2.49c1.08,0.82,1.91,1.73,2.65,2.66
		C1239.02,626.33,1241.22,626.18,1243.46,626.68z"/>
</g>
<g>
	
		<ellipse transform="matrix(0.3846 -0.9231 0.9231 0.3846 153.2415 877.931)" class="st8" cx="735.08" cy="324.03" rx="20.27" ry="31.5"/>
	
		<ellipse transform="matrix(0.0185 -0.9998 0.9998 0.0185 356.6342 947.8943)" class="st8" cx="661.13" cy="292.3" rx="21.16" ry="32.43"/>
	
		<ellipse transform="matrix(0.7949 -0.6068 0.6068 0.7949 -81.8569 432.9958)" class="st8" cx="599.46" cy="337.56" rx="19.83" ry="27.41"/>
</g>
</svg>
