<svg id="Слой_2" data-name="Слой 2" xmlns="http://www.w3.org/2000/svg" viewBox="0 0 883.43 1204.86"><defs><style>.cls-1,.cls-4{fill:#7d3613;}.cls-1{stroke:#603813;}.cls-1,.cls-14,.cls-2{stroke-miterlimit:10;stroke-width:2px;}.cls-2{fill:#f7931e;stroke:#000;}.cls-3{fill:#fbb03b;}.cls-5{fill:#fff;}.cls-6{fill:#d9f2f2;}.cls-7{fill:#d9aa35;}.cls-8{fill:#ebd86a;}.cls-9{opacity:0.3;}.cls-10{fill:#fb662a;}.cls-11{fill:#e1f3bf;opacity:0.71;}.cls-12{fill:#88ba56;}.cls-13{fill:#61aa54;}.cls-14{fill:none;stroke:#61aa54;}</style></defs><rect class="cls-1" x="470.66" y="931.74" width="40.89" height="252.71"/><rect class="cls-1" x="787.54" y="1255.19" width="81.78" height="38.81" rx="6.73" transform="translate(1339.98 2459.05) rotate(-180)"/><rect class="cls-1" x="334.27" y="931.74" width="40.89" height="252.71"/><rect class="cls-1" x="651.15" y="1255.19" width="81.78" height="38.81" rx="6.73" transform="translate(1067.2 2459.05) rotate(-180)"/><circle class="cls-2" cx="441.72" cy="561.5" r="441.72"/><ellipse class="cls-3" cx="576.91" cy="351.35" rx="31.39" ry="20.2" transform="translate(-351.71 -25.23) rotate(-6.25)"/><ellipse class="cls-3" cx="497.11" cy="359.24" rx="32.31" ry="21.09" transform="translate(-427.07 183.28) rotate(-27.81)"/><ellipse class="cls-3" cx="465.08" cy="428.41" rx="19.76" ry="27.31" transform="translate(-431.32 591.22) rotate(-66.23)"/><circle class="cls-2" cx="441.72" cy="561.5" r="441.72"/><path class="cls-4" d="M514.1,797l47.13,40.81c14.23,12.32,28.23,25.13,43.76,35.84,14.75,10.16,31.22,17.65,49.15,19.6,20.66,2.24,41.8-3.67,62-7.59l68.57-13.35c6.37-1.24,10-8.85,8.38-14.76-1.82-6.65-8.38-9.62-14.76-8.38l-57.94,11.28c-18.19,3.54-36.91,8.83-55.51,9.25-33.5.76-59.32-25.21-82.89-45.63l-50.87-44c-4.89-4.24-12.15-4.81-17,0-4.33,4.34-4.92,12.71,0,17Z" transform="translate(-316.88 -90.14)"/><path class="cls-5" d="M1053.76,560.33c-4.82,51.83-51.38,74.36-104.32,74.36S853.6,592.31,853.6,540s42.91-94.67,95.84-94.67S1061.87,473.09,1053.76,560.33Z" transform="translate(-316.88 -90.14)"/><circle class="cls-4" cx="621.6" cy="441.26" r="62.01"/><polygon class="cls-6" points="598.34 864.76 491.1 864.76 470.66 645.71 621.6 645.71 598.34 864.76"/><polygon class="cls-7" points="584.31 852.25 509 852.25 494.65 719.76 600.64 719.76 584.31 852.25"/><ellipse class="cls-8" cx="551.53" cy="721.52" rx="60.42" ry="15.07"/><circle class="cls-4" cx="491.1" cy="757.58" r="36.06"/><circle class="cls-4" cx="622.76" cy="755.82" r="36.06"/><circle class="cls-4" cx="498.8" cy="571.85" r="28.14"/><path class="cls-5" d="M577.66,560.33C582.48,612.16,629,634.69,682,634.69s95.85-42.38,95.85-94.66S734.91,445.36,682,445.36,569.54,473.09,577.66,560.33Z" transform="translate(-316.88 -90.14)"/><circle class="cls-4" cx="365.95" cy="441.26" r="62.01"/><ellipse class="cls-3" cx="576.91" cy="351.35" rx="31.39" ry="20.2" transform="translate(-351.71 -25.23) rotate(-6.25)"/><ellipse class="cls-3" cx="497.11" cy="359.24" rx="32.31" ry="21.09" transform="translate(-427.07 183.28) rotate(-27.81)"/><ellipse class="cls-3" cx="465.08" cy="428.41" rx="19.76" ry="27.31" transform="translate(-431.32 591.22) rotate(-66.23)"/><g class="cls-9"><path class="cls-10" d="M1197.81,651.62c0,244.37-197.74,442.46-441.71,442.46a443.45,443.45,0,0,1-74.63-6.28C892,1054.1,1104.1,854.71,1104.1,634.69s-106-390.09-316.56-423.8c24.27-4.11-56.88-1.69-31.44-1.69C1000.07,209.2,1197.81,407.28,1197.81,651.62Z" transform="translate(-316.88 -90.14)"/></g><path class="cls-4" d="M1114.94,756.21c-1,10.89-5.3,21.86-11.81,31.66A95.54,95.54,0,0,1,1077.71,813c-24,16.24-52.8,21.67-81.8,22.6-18.77.6-37.54-.47-56.27-1.58-6.47-.39-12,5.79-12,12,0,6.81,5.51,11.61,12,12,35.78,2.12,72.38,4,107.4-5.28,29.69-7.84,56.7-24.72,74.78-49.77a93.28,93.28,0,0,0,17.12-46.71c.57-6.46-5.92-12-12-12-7,0-11.43,5.52-12,12Z" transform="translate(-316.88 -90.14)"/><rect class="cls-11" x="738.05" y="806.03" width="256.07" height="16.2" rx="2.84" transform="translate(1401.51 -104.56) rotate(92.58)"/><rect class="cls-11" x="807.62" y="671.18" width="72.02" height="16.2" rx="2.84" transform="translate(917.71 1599.22) rotate(-150)"/><ellipse class="cls-12" cx="455.04" cy="160.59" rx="49.95" ry="11.09"/><path class="cls-13" d="M771,105.28c.21,1.24.41,2.49.59,3.73-.27-1.89.25,2,.24,2q.48,4.06.79,8.14c.41,5.3.65,10.6.76,15.91a359.48,359.48,0,0,1-1.17,36.4c-1.76,21.88-5.22,43.92-12.31,65-2.06,6.14,2.38,13.11,8.38,14.76,6.56,1.8,12.69-2.21,14.76-8.38,7.71-22.92,11.24-47.35,13.17-71.38s1.88-48.6-2.06-72.55c-1.06-6.4-9-10-14.76-8.38-6.8,1.87-9.44,8.34-8.39,14.76Z" transform="translate(-316.88 -90.14)"/><path class="cls-14" d="M787.21,135.66c.34-.74,25.8,10.2,56.94,24.46" transform="translate(-316.88 -90.14)"/><path class="cls-13" d="M1167.19,358.56a14.47,14.47,0,0,1,6.3-.37c.27,0,.52.11.78.16,39.65-8-34.44-140.66-127.29-210.33C968,88.79,872.24,87.6,839.57,136.14s-7.21,166.13,89.11,187.67c99.15,22.18,115.71,15.76,236.72,34.54C1166,358.45,1166.6,358.5,1167.19,358.56Z" transform="translate(-316.88 -90.14)"/><path class="cls-12" d="M1182.6,355.87c13.63-30.12-52.91-142.58-135.16-205.88-79.06-60.85-176.06-63.71-209.86-15.58C825.13,217,1125,332.34,1168.08,358.34a14.67,14.67,0,0,1,9,.9A12.44,12.44,0,0,1,1182.6,355.87Z" transform="translate(-316.88 -90.14)"/></svg>