<?xml version="1.0" encoding="utf-8"?>
<!-- Generator: Adobe Illustrator 24.1.1, SVG Export Plug-In . SVG Version: 6.00 Build 0)  -->
<svg version="1.1" id="Слой_1" xmlns="http://www.w3.org/2000/svg" xmlns:xlink="http://www.w3.org/1999/xlink" x="0px" y="0px"
	 viewBox="0 0 1500 1500" style="enable-background:new 0 0 1500 1500;" xml:space="preserve">
<style type="text/css">
	.st0{fill:none;}
	.st1{fill:#7D3613;}
	.st2{fill:#F7931E;}
	.st3{opacity:0.3;}
	.st4{fill:#FB662A;}
	.st5{fill:#88BA56;}
	.st6{fill:#61AA54;}
	.st7{fill:none;stroke:#61AA54;stroke-width:2;stroke-miterlimit:10;}
	.st8{fill:#FBB03B;}
	.st9{fill:#FFFFFF;}
</style>
<path class="st0" d="M458.64,592.1"/>
<path class="st0" d="M515.23,555.08c-0.72,0.4-2.15,0.69-4.35,0.83"/>
<g>
	<rect x="815.69" y="1059.2" class="st1" width="41.03" height="253.6"/>
	<path class="st1" d="M822.42,1293.32h68.6c3.7,0,6.73,3.03,6.73,6.73v25.48c0,3.7-3.03,6.73-6.73,6.73h-68.6
		c-3.7,0-6.73-3.03-6.73-6.73v-25.48C815.69,1296.35,818.72,1293.32,822.42,1293.32z"/>
</g>
<rect x="642.52" y="1061.51" class="st1" width="41.03" height="253.6"/>
<path class="st1" d="M608.22,1334.58h68.6c3.7,0,6.73-3.03,6.73-6.73v-25.48c0-3.7-3.03-6.73-6.73-6.73h-68.6
	c-3.7,0-6.73,3.03-6.73,6.73v25.48C601.49,1331.55,604.52,1334.58,608.22,1334.58z"/>
<g>
	<circle class="st2" cx="750.35" cy="692.52" r="443.28"/>
</g>
<circle class="st1" cx="149.89" cy="485.52" r="36.19"/>
<g class="st3">
	<path class="st4" d="M1191.12,689.94c0,245.23-198.44,444.02-443.27,444.02c-25.53,0-50.54-2.15-74.89-6.3
		c211.26-33.83,424.12-233.92,424.12-454.71c0-220.76-106.42-391.47-317.68-425.3c24.35-4.12-57.08-1.7-31.55-1.7
		C992.68,245.95,1191.12,444.73,1191.12,689.94z"/>
</g>
<ellipse class="st5" cx="763.72" cy="287.63" rx="50.12" ry="11.13"/>
<g>
	<g>
		<path class="st6" d="M762.86,141.65c0.59,3.61,0.48,2.72,0.83,5.75c0.32,2.72,0.58,5.45,0.79,8.17
			c0.42,5.31,0.66,10.64,0.77,15.97c0.25,12.18-0.19,24.38-1.17,36.52c-1.77,21.97-5.25,44.1-12.36,65.25
			c-2.06,6.14,2.38,13.11,8.38,14.76c6.55,1.8,12.69-2.22,14.76-8.38c7.73-23,11.27-47.51,13.22-71.63
			c1.96-24.23,1.88-48.76-2.07-72.79c-1.05-6.4-8.99-9.97-14.76-8.38C764.45,128.76,761.8,135.23,762.86,141.65L762.86,141.65z"/>
	</g>
</g>
<path class="st7" d="M779.06,172.15c0.34-0.74,25.9,10.23,57.14,24.54"/>
<g>
	<path class="st6" d="M1160.38,395.84c1.87-0.56,3.97-0.72,6.32-0.37c0.27,0.04,0.52,0.11,0.78,0.16
		c39.8-8.06-34.56-141.16-127.73-211.07c-79.23-59.44-175.36-60.64-208.14-11.92c-32.78,48.71-7.23,166.71,89.43,188.33
		c99.49,22.25,116.12,15.81,237.55,34.66C1159.2,395.72,1159.79,395.78,1160.38,395.84z"/>
	<path class="st5" d="M1175.85,393.14c13.68-30.23-53.09-143.08-135.64-206.61c-79.34-61.06-176.68-63.93-210.6-15.63
		c-12.49,82.91,288.44,198.64,331.67,224.73c1.64-0.36,3.44-0.45,5.42-0.15c1.34,0.2,2.51,0.59,3.6,1.05
		C1171.79,394.97,1173.64,393.78,1175.85,393.14z"/>
</g>
<g>
	<g>
		<path class="st1" d="M137.89,507.26c4.95,48.75-7.24,103.38,21.3,146.92c23.76,36.24,67.09,57.66,107.04,70.83
			c22.3,7.35,45.77,12.37,69.29,13.13c15.45,0.5,15.43-23.5,0-24c-18.54-0.6-35.77-4.08-54.58-9.66
			c-19.87-5.9-38.23-13.47-56.2-23.82c-4.07-2.34-8.06-4.81-11.97-7.42c-3.96-2.64-7.75-5.37-10.69-7.75
			c-3.67-2.98-7.22-6.12-10.57-9.47c-1.46-1.46-2.89-2.95-4.27-4.49c-0.54-0.6-1.08-1.21-1.61-1.83c-0.27-0.31-3.06-3.74-1.88-2.21
			c-13.43-17.4-18.41-38.63-19.73-60c-1.66-26.73,0.58-53.54-2.13-80.23c-0.65-6.45-5.05-12-12-12
			C143.9,495.26,137.23,500.78,137.89,507.26L137.89,507.26z"/>
	</g>
</g>
<g>
	
		<ellipse transform="matrix(0.9941 -0.1089 0.1089 0.9941 -37.2061 65.8742)" class="st8" cx="584.52" cy="373.59" rx="31.5" ry="20.27"/>
	
		<ellipse transform="matrix(0.8845 -0.4666 0.4666 0.8845 -119.7279 279.4184)" class="st8" cx="504.44" cy="381.51" rx="32.43" ry="21.16"/>
	
		<ellipse transform="matrix(0.4031 -0.9152 0.9152 0.4031 -130.7368 701.4051)" class="st8" cx="472.3" cy="450.92" rx="19.83" ry="27.41"/>
</g>
<circle class="st1" cx="1350.81" cy="509.64" r="36.19"/>
<g>
	<g>
		<path class="st1" d="M552.63,583.27c19.2-23.13,46.78-43.25,77.79-42.24c25.45,0.83,50.72,18.74,54.38,44.99
			c0.9,6.43,9.1,9.94,14.76,8.38c6.92-1.9,9.28-8.32,8.38-14.76c-3.86-27.7-26.51-48.61-51.82-57.78
			c-27.56-9.98-58.23-3.39-82.73,11.48c-14.33,8.7-27.03,20.09-37.72,32.97c-4.14,4.98-4.88,12.09,0,16.97
			C539.92,587.53,548.47,588.28,552.63,583.27L552.63,583.27z"/>
	</g>
</g>
<g>
	<g>
		<path class="st1" d="M1016.63,565.47c-18.53-22.32-43.93-41.21-72.79-47.13c-28.01-5.75-57.23,1.43-78.29,21.17
			c-10.99,10.3-19.1,24.29-21.19,39.3c-0.89,6.41,1.56,12.89,8.38,14.76c5.61,1.54,13.86-1.92,14.76-8.38
			c3.66-26.24,28.92-44.16,54.38-44.99c31.01-1.01,58.58,19.11,77.79,42.24c4.14,4.99,12.69,4.28,16.97,0
			C1021.56,577.5,1020.78,570.47,1016.63,565.47L1016.63,565.47z"/>
	</g>
</g>
<g>
	<g>
		<path class="st1" d="M1340.6,524.65c-4.05,38.88-3.52,81.22-18.61,116.89c-7.8,18.42-20.09,31.37-35.67,43.93
			c-15.56,12.55-33.53,22.81-51.96,30.51c-21.53,8.99-44.49,14.79-67.4,15.55c-15.4,0.51-15.47,24.51,0,24
			c45.59-1.51,91.39-19.28,127.78-46.47c17.51-13.08,34.12-28.2,44.35-47.82c9.9-19,14.91-40.01,17.97-61.09
			c3.63-25.06,4.92-50.34,7.54-75.51c0.67-6.46-6-12-12-12C1345.55,512.65,1341.28,518.18,1340.6,524.65L1340.6,524.65z"/>
	</g>
</g>
<path class="st9" d="M886.16,705.45c41.66,40.57-34.95,104.94-108.85,105.44c-93.76,0.63-142.03-81.14-105.35-105.44
	c25.94-17.18,47.95,20.04,107.1,20.04C838.21,725.49,863.87,683.74,886.16,705.45z"/>
</svg>
