<?xml version="1.0" encoding="utf-8"?>
<!-- Generator: Adobe Illustrator 24.1.1, SVG Export Plug-In . SVG Version: 6.00 Build 0)  -->
<svg version="1.1" id="Слой_1" xmlns="http://www.w3.org/2000/svg" xmlns:xlink="http://www.w3.org/1999/xlink" x="0px" y="0px"
	 viewBox="0 0 1500 1500" style="enable-background:new 0 0 1500 1500;" xml:space="preserve">
<style type="text/css">
	.st0{fill:none;}
	.st1{fill:#7D3613;}
	.st2{fill:#F7931E;}
	.st3{fill:#FFFFFF;}
	.st4{opacity:0.3;}
	.st5{fill:#FB662A;}
	.st6{fill:#88BA56;}
	.st7{fill:#61AA54;}
	.st8{fill:none;stroke:#61AA54;stroke-width:2;stroke-miterlimit:10;}
	.st9{fill:#FBB03B;}
	.st10{fill:none;stroke:#000000;stroke-width:2;stroke-miterlimit:10;}
</style>
<path class="st0" d="M424.28,591.66"/>
<path class="st0" d="M482.26,553.73c-0.73,0.41-2.2,0.7-4.46,0.85"/>
<g>
	<rect x="790.09" y="1070.22" class="st1" width="42.04" height="259.82"/>
	<path class="st1" d="M796.83,1310.1h70.61c3.7,0,6.73,3.03,6.73,6.73v26.44c0,3.7-3.03,6.73-6.73,6.73h-70.61
		c-3.7,0-6.73-3.03-6.73-6.73v-26.44C790.09,1313.13,793.12,1310.1,796.83,1310.1z"/>
</g>
<rect x="612.68" y="1072.59" class="st1" width="42.04" height="259.82"/>
<path class="st1" d="M577.37,1310.1h70.61c3.7,0,6.73,3.03,6.73,6.73v26.44c0,3.7-3.03,6.73-6.73,6.73h-70.61
	c-3.7,0-6.73-3.03-6.73-6.73v-26.44C570.64,1313.13,573.67,1310.1,577.37,1310.1z"/>
<g>
	<circle class="st2" cx="723.15" cy="691.91" r="454.15"/>
</g>
<path class="st3" d="M1026.62,598.03c-4.96,53.29-52.83,76.46-107.25,76.46c-54.43,0-98.55-43.58-98.55-97.33
	s44.12-97.33,98.55-97.33C973.8,479.83,1034.97,508.33,1026.62,598.03z"/>
<circle class="st1" cx="908.1" cy="568.3" r="63.75"/>
<circle class="st1" cx="381.32" cy="960.5" r="37.08"/>
<path class="st3" d="M537.12,598.03c4.97,53.29,53,76.46,107.6,76.46s98.87-43.58,98.87-97.33s-44.27-97.33-98.87-97.33
	S528.75,508.34,537.12,598.03z"/>
<circle class="st1" cx="645.25" cy="568.3" r="63.75"/>
<g class="st4">
	<path class="st5" d="M1174.74,692.26c0,251.25-203.31,454.91-454.15,454.91c-26.15,0-51.78-2.2-76.73-6.45
		c216.45-34.66,434.53-239.66,434.53-465.87c0-226.18-109.03-401.08-325.48-435.73c24.95-4.22-58.48-1.74-32.32-1.74
		C971.43,237.38,1174.74,441.04,1174.74,692.26z"/>
</g>
<ellipse class="st6" cx="736.85" cy="279.72" rx="51.35" ry="11.4"/>
<g>
	<g>
		<path class="st7" d="M736.25,130.08c0.81,4.89,1.15,7.88,1.63,13.78c0.46,5.75,0.73,11.52,0.84,17.29
			c0.24,12.36-0.21,24.74-1.21,37.06c-1.81,22.52-5.37,45.22-12.67,66.93c-2.07,6.14,2.38,13.11,8.38,14.76
			c6.55,1.8,12.69-2.22,14.76-8.38c7.91-23.54,11.54-48.63,13.53-73.31c2-24.8,1.94-49.9-2.11-74.5c-1.05-6.4-8.99-9.97-14.76-8.38
			C737.84,117.19,735.2,123.66,736.25,130.08L736.25,130.08z"/>
	</g>
</g>
<path class="st8" d="M752.57,161.41c0.35-0.76,26.53,10.49,58.55,25.15"/>
<g>
	<path class="st7" d="M1143.25,390.58c1.91-0.57,4.07-0.74,6.48-0.38c0.28,0.04,0.53,0.11,0.8,0.16
		c40.77-8.25-35.41-144.62-130.87-216.25c-81.17-60.9-179.67-62.13-213.25-12.22c-33.59,49.91-7.41,170.81,91.62,192.96
		c101.94,22.8,118.97,16.2,243.38,35.51C1142.04,390.47,1142.64,390.52,1143.25,390.58z"/>
	<path class="st6" d="M1159.09,387.82c14.02-30.97-54.39-146.59-138.97-211.68c-81.29-62.56-181.02-65.5-215.77-16.02
		c-12.8,84.95,295.52,203.51,339.81,230.24c1.68-0.37,3.53-0.46,5.56-0.16c1.37,0.21,2.57,0.6,3.69,1.08
		C1154.93,389.7,1156.84,388.48,1159.09,387.82z"/>
</g>
<g>
	<g>
		<path class="st1" d="M647.23,744.94c28.13,34.32,74.8,53.35,118.24,39.3c6.16-1.99,10.15-8.31,8.38-14.76
			c-1.66-6.05-8.57-10.38-14.76-8.38c-16.87,5.46-33.36,5.1-50.36-0.67c-17.28-5.87-32.65-17.96-44.53-32.45
			c-4.11-5.02-12.71-4.26-16.97,0C642.27,732.93,643.11,739.91,647.23,744.94L647.23,744.94z"/>
	</g>
</g>
<g>
	<g>
		<path class="st1" d="M293.41,714.71c-42.1,28.31-74.62,69.18-80.49,120.72c-2.09,18.34,0.55,35.84,8.9,52.37
			c9.19,18.19,24.07,32.85,40.16,45c23.58,17.82,51.18,29.95,79.08,39.26c6.15,2.05,13.11-2.37,14.76-8.38
			c1.8-6.54-2.21-12.7-8.38-14.76c-23.05-7.68-45.43-17.56-65.58-31.26c-7.9-5.37-14.45-10.63-21.61-17.86
			c-3-3.03-5.86-6.21-8.54-9.54c-0.22-0.28-1.38-1.81-0.18-0.22c-0.66-0.88-1.31-1.76-1.94-2.66c-1.34-1.89-2.61-3.83-3.8-5.82
			c-1.86-3.08-3.47-6.26-4.99-9.52c-1.38-2.97,0.72,2.29-0.31-0.79c-0.31-0.92-0.69-1.83-1.01-2.75c-0.62-1.82-1.18-3.66-1.66-5.52
			c-0.47-1.83-0.83-3.68-1.19-5.54c-0.12-0.61-0.2-1.23-0.29-1.85c0.48,3.19,0.03,0.08,0-0.51c-0.25-4.17-0.28-8.27-0.04-12.44
			c0.12-2.01,0.28-4.02,0.49-6.02c0.01-0.08,0.5-4.04,0.17-1.65c0.17-1.22,0.36-2.43,0.57-3.64c0.85-4.92,1.98-9.8,3.39-14.59
			c2.87-9.78,5.8-16.61,10.85-25.56c12.83-22.76,31.99-41.13,53.76-55.77c5.37-3.61,7.72-10.57,4.31-16.42
			C306.71,713.69,298.81,711.08,293.41,714.71L293.41,714.71z"/>
	</g>
</g>
<g>
	
		<ellipse transform="matrix(0.9941 -0.1089 0.1089 0.9941 -36.7603 62.4349)" class="st9" cx="553.26" cy="367.79" rx="32.27" ry="20.77"/>
	
		<ellipse transform="matrix(0.8845 -0.4666 0.4666 0.8845 -120.9509 263.2661)" class="st9" cx="471.2" cy="375.9" rx="33.22" ry="21.68"/>
	
		<ellipse transform="matrix(0.4031 -0.9152 0.9152 0.4031 -147.4735 667.9407)" class="st9" cx="438.28" cy="447.02" rx="20.32" ry="28.08"/>
</g>
<g>
	<g>
		<path class="st1" d="M1126.83,735.43c19.49,14.01,39.02,28.1,56.7,44.4c7.9,7.29,15.99,15.43,22.25,23.71
			c3.12,4.12,5.96,8.48,8.45,13.01c2.47,4.52,3.53,6.79,5.02,11.67c2.36,7.76,2.51,12.48,1.82,21.12c0.26-3.24,0.05-0.28-0.08,0.38
			c-0.18,0.88-0.33,1.77-0.53,2.65c-0.33,1.47-0.71,2.92-1.15,4.35c-0.44,1.45-0.99,2.85-1.49,4.29c-1,2.87,1.2-2.2-0.23,0.52
			c-0.43,0.82-0.8,1.68-1.22,2.51c-1.61,3.15-3.5,6.12-5.52,9.02c0.02-0.02-1.93,2.6-0.86,1.2c1.09-1.42-1,1.22-0.97,1.18
			c-1.35,1.63-2.75,3.2-4.2,4.74c-2.83,3-5.84,5.83-8.97,8.52c-3.8,3.27-5.1,4.27-9.24,7.2c-21.05,14.95-44.81,26.1-68.61,35.9
			c-5.99,2.47-10.25,7.97-8.38,14.76c1.56,5.66,8.73,10.86,14.76,8.38c24.14-9.94,48.27-20.74,70.02-35.33
			c15.62-10.49,30.57-23.04,40.39-39.33c9.07-15.05,12.32-32.5,9.57-49.81c-3.62-22.83-18.9-42.61-34.64-58.69
			c-21.21-21.67-46.22-39.43-70.77-57.07c-5.27-3.78-13.36-0.92-16.42,4.3C1118.99,725.06,1121.55,731.64,1126.83,735.43
			L1126.83,735.43z"/>
	</g>
</g>
<circle class="st1" cx="1096.95" cy="950.41" r="37.08"/>
<path class="st10" d="M521.35,600.25c5.34,58.94,56.88,84.57,115.47,84.57c58.6,0,106.1-48.2,106.1-107.66
	c0-59.46-47.5-107.66-106.1-107.66C578.22,469.5,512.36,501.03,521.35,600.25z"/>
<path class="st10" d="M1041.53,599.9c-5.32,58.06-56.65,83.3-115.02,83.3s-105.69-47.48-105.69-106.04s47.32-106.04,105.69-106.04
	S1050.48,502.17,1041.53,599.9z"/>
<line class="st10" x1="742.92" y1="577.16" x2="820.83" y2="577.16"/>
</svg>
